PathFileType	4	(X/Y/Z)	RBDS020static.trc
DataRate	CameraRate	NumFrames	NumMarkers	Units	OrigDataRate	OrigDataStartFrame	OrigNumFrames
150.000000	150.000000	4	48	mm	150.000000	37	150
Frame#	Time	L.Ankle			L.Ankle.Medial			L.ASIS			L.GTR			L.Heel.Bottom			L.Heel.Lateral			L.Heel.Top			L.HF			L.Iliac.Crest			L.Knee			L.Knee.Medial			L.MT1			L.MT2			L.MT5			L.PSIS			L.Shank.Bottom.Lateral			L.Shank.Bottom.Medial			L.Shank.Top.Lateral			L.Shank.Top.Medial			L.Thigh.Bottom.Lateral			L.Thigh.Bottom.Medial			L.Thigh.Top.Lateral			L.Thigh.Top.Medial			L.TT			R.Ankle			R.Ankle.Medial			R.ASIS			R.GTR			R.Heel.Bottom			R.Heel.Lateral			R.Heel.Top			R.HF			R.Iliac.Crest			R.Knee			R.Knee.Medial			R.MT1			R.MT2			R.MT5			R.PSIS			R.Shank.Bottom.Lateral			R.Shank.Bottom.Medial			R.Shank.Top.Lateral			R.Shank.Top.Medial			R.Thigh.Bottom.Lateral			R.Thigh.Bottom.Medial			R.Thigh.Top.Lateral			R.Thigh.Top.Medial			R.TT			
		X1	Y1	Z1	X2	Y2	Z2	X3	Y3	Z3	X4	Y4	Z4	X5	Y5	Z5	X6	Y6	Z6	X7	Y7	Z7	X8	Y8	Z8	X9	Y9	Z9	X10	Y10	Z10	X11	Y11	Z11	X12	Y12	Z12	X13	Y13	Z13	X14	Y14	Z14	X15	Y15	Z15	X16	Y16	Z16	X17	Y17	Z17	X18	Y18	Z18	X19	Y19	Z19	X20	Y20	Z20	X21	Y21	Z21	X22	Y22	Z22	X23	Y23	Z23	X24	Y24	Z24	X25	Y25	Z25	X26	Y26	Z26	X27	Y27	Z27	X28	Y28	Z28	X29	Y29	Z29	X30	Y30	Z30	X31	Y31	Z31	X32	Y32	Z32	X33	Y33	Z33	X34	Y34	Z34	X35	Y35	Z35	X36	Y36	Z36	X37	Y37	Z37	X38	Y38	Z38	X39	Y39	Z39	X40	Y40	Z40	X41	Y41	Z41	X42	Y42	Z42	X43	Y43	Z43	X44	Y44	Z44	X45	Y45	Z45	X46	Y46	Z46	X47	Y47	Z47	X48	Y48	Z48	

38	0.2466666666666667	705.1259155273438	110.4578094482422	1037.606079101563	734.6754150390625	116.661994934082	1116.120849609375	838.0673828125	1044.996826171875	1098.89306640625	761.5704956054688	937.3218994140625	1040.683715820313	638.8326416015625	39.26812744140625	1085.905639648438	662.0165405273438	61.95048522949219	1042.44580078125	647.2521362304688	87.30110168457031	1085.572631835938	759.9241333007813	481.9858093261719	1033.772216796875	772.1856079101563	1090.795532226563	1072.505126953125	757.9091796875	540.17041015625	1044.946044921875	762.8427734375	523.5892944335938	1155.300048828125	857.3388061523438	62.012939453125	1118.182861328125	864.4995727539063	68.90041351318359	1074.680297851563	823.5703125	48.7589111328125	1011.364440917969	677.68310546875	1070.419189453125	1179.6962890625	713.6669921875	186.3997192382813	1030.5615234375	675.2962036132813	189.9795532226563	1070.263916015625	711.5487060546875	266.649169921875	1022.4091796875	675.4833374023438	270.9210815429688	1062.250732421875	760.1917114257813	714.5975341796875	1024.815307617188	702.2088623046875	710.16796875	1069.059936523438	750.15283203125	824.1368408203125	1024.711791992188	697.7230834960938	819.3408813476563	1070.708740234375	810.8560180664063	448.1706237792969	1079.230102539063	703.105712890625	106.4693374633789	1409.573120117188	729.0010375976563	119.8152008056641	1329.832153320313	850.3677978515625	1033.585327148438	1342.5263671875	780.1908569335938	938.6866455078125	1392.142700195313	633.7297973632813	40.29613876342773	1367.88037109375	660.97900390625	57.77357864379883	1411.388671875	641.0570068359375	82.8839111328125	1367.334838867188	742.0250244140625	482.7209167480469	1402.341186523438	795.3497924804688	1084.633544921875	1370.827880859375	743.424560546875	541.05126953125	1393.08154296875	756.6637573242188	525.76025390625	1281.349243164063	845.6033325195313	59.96335220336914	1329.498657226563	860.87353515625	74.54584503173828	1376.42431640625	825.3912963867188	50.86638259887695	1439.608154296875	684.6455688476563	1070.767578125	1274.032348632813	710.3961791992188	203.0011291503906	1416.132202148438	669.5264892578125	208.3278503417969	1385.340698242188	714.00927734375	287.6525573730469	1423.5849609375	669.5557861328125	288.9297790527344	1393.470703125	731.2550048828125	677.1123046875	1398.415771484375	685.2063598632813	675.11328125	1343.814086914063	726.4880981445313	787.7261962890625	1396.543701171875	684.00048828125	785.0717163085938	1342.845825195313	798.0068969726563	452.3269958496094	1351.05126953125	
39	0.2533333333333334	705.129638671875	110.4425506591797	1037.616821289063	734.677734375	116.6541061401367	1116.114013671875	838.0582275390625	1045.005981445313	1098.900756835938	761.5579223632813	937.318115234375	1040.687622070313	638.8303833007813	39.27618789672852	1085.91748046875	662.011474609375	61.95664215087891	1042.4423828125	647.2535400390625	87.29596710205078	1085.56787109375	759.916259765625	481.9946594238281	1033.779174804688	772.1708374023438	1090.7900390625	1072.50341796875	757.9088745117188	540.16552734375	1044.953002929688	762.8252563476563	523.5964965820313	1155.302124023438	857.3345947265625	62.01761245727539	1118.18896484375	864.5123291015625	68.89929962158203	1074.684814453125	823.5736083984375	48.75077819824219	1011.372741699219	677.6514892578125	1070.418334960938	1179.693969726563	713.6693725585938	186.3880920410156	1030.565795898438	675.2958374023438	189.9731597900391	1070.253540039063	711.5374145507813	266.6463012695313	1022.417724609375	675.482666015625	270.9154357910156	1062.255249023438	760.1845703125	714.587158203125	1024.828125	702.2077026367188	710.1580200195313	1069.057739257813	750.1430053710938	824.1334228515625	1024.71484375	697.7178344726563	819.3363037109375	1070.720581054688	810.8547973632813	448.1710815429688	1079.22412109375	703.109130859375	106.4770050048828	1409.58544921875	728.9981079101563	119.8163070678711	1329.835083007813	850.3392944335938	1033.589965820313	1342.537109375	780.1724243164063	938.6942749023438	1392.147827148438	633.7293090820313	40.30697250366211	1367.874267578125	660.9786987304688	57.78176498413086	1411.387084960938	641.0526123046875	82.88067626953125	1367.33056640625	742.0164794921875	482.7196655273438	1402.347900390625	795.3234252929688	1084.632202148438	1370.84326171875	743.415771484375	541.0504150390625	1393.080200195313	756.6546020507813	525.7737426757813	1281.360107421875	845.5971069335938	59.97392654418945	1329.486328125	860.868896484375	74.55295562744141	1376.407592773438	825.39111328125	50.85940170288086	1439.604248046875	684.6243286132813	1070.760864257813	1274.037109375	710.3948364257813	202.9950561523438	1416.14404296875	669.52978515625	208.3274688720703	1385.347778320313	714.0106811523438	287.64013671875	1423.584716796875	669.5580444335938	288.9315185546875	1393.480224609375	731.2381591796875	677.1159057617188	1398.412841796875	685.1895141601563	675.108642578125	1343.817993164063	726.4791870117188	787.732177734375	1396.551635742188	683.9942016601563	785.0694580078125	1342.83056640625	798.0156860351563	452.3336486816406	1351.068969726563	
40	0.26	705.1317749023438	110.4533615112305	1037.602172851563	734.6722412109375	116.664680480957	1116.123046875	838.0449829101563	1045.002685546875	1098.890014648438	761.5462036132813	937.3200073242188	1040.68603515625	638.8284301757813	39.26155471801758	1085.9091796875	662.0087280273438	61.96030807495117	1042.451782226563	647.257568359375	87.28999328613281	1085.56787109375	759.8919677734375	481.9888916015625	1033.766357421875	772.1605834960938	1090.804077148438	1072.49658203125	757.8765869140625	540.1741333007813	1044.949340820313	762.8312377929688	523.6121826171875	1155.308837890625	857.3382568359375	62.01978302001953	1118.183471679688	864.5040893554688	68.89735412597656	1074.674926757813	823.5686645507813	48.75700759887695	1011.373229980469	677.6419067382813	1070.415771484375	1179.688354492188	713.6613159179688	186.3931884765625	1030.568237304688	675.2919311523438	189.970703125	1070.264282226563	711.5335693359375	266.6411743164063	1022.41259765625	675.4683227539063	270.9201354980469	1062.239013671875	760.1927490234375	714.593505859375	1024.811279296875	702.1978149414063	710.16162109375	1069.056884765625	750.130859375	824.1322631835938	1024.710205078125	697.7041015625	819.3379516601563	1070.709838867188	810.8444213867188	448.1853942871094	1079.222290039063	703.1026611328125	106.4760360717773	1409.585327148438	729.0147705078125	119.8136749267578	1329.848266601563	850.3170166015625	1033.590942382813	1342.5380859375	780.1589965820313	938.6942138671875	1392.144653320313	633.7344970703125	40.30119705200195	1367.881591796875	660.9834594726563	57.77654266357422	1411.394409179688	641.0534057617188	82.87830352783203	1367.326782226563	742.0173950195313	482.7255859375	1402.341674804688	795.2976684570313	1084.611328125	1370.834838867188	743.4052124023438	541.054931640625	1393.095581054688	756.6486206054688	525.7559814453125	1281.366577148438	845.59619140625	59.96982574462891	1329.4990234375	860.863525390625	74.55215454101563	1376.418090820313	825.388916015625	50.86369705200195	1439.611572265625	684.60400390625	1070.76123046875	1274.040771484375	710.3941040039063	202.9953002929688	1416.14599609375	669.5304565429688	208.3237915039063	1385.345703125	713.9962768554688	287.6448059082031	1423.590209960938	669.5545043945313	288.9277954101563	1393.483764648438	731.2342529296875	677.1158447265625	1398.418090820313	685.18701171875	675.106201171875	1343.831420898438	726.4732666015625	787.73095703125	1396.539428710938	683.9891357421875	785.0632934570313	1342.850952148438	798.0033569335938	452.3322448730469	1351.075073242188	
41	0.2666666666666667	705.1386108398438	110.4424591064453	1037.609619140625	734.6705322265625	116.6639785766602	1116.123413085938	838.021728515625	1045.011474609375	1098.905151367188	761.5339965820313	937.3157348632813	1040.6875	638.833740234375	39.26683807373047	1085.915771484375	662.0090942382813	61.95226669311523	1042.447265625	647.2470703125	87.29848480224609	1085.565063476563	759.8812255859375	481.97802734375	1033.768188476563	772.1487426757813	1090.806518554688	1072.497924804688	757.8606567382813	540.1737670898438	1044.952270507813	762.7947998046875	523.6041259765625	1155.312866210938	857.33642578125	62.0109977722168	1118.183349609375	864.4996948242188	68.89014434814453	1074.677734375	823.5708618164063	48.74808883666992	1011.377380371094	677.6194458007813	1070.420654296875	1179.69482421875	713.6608276367188	186.3918762207031	1030.568237304688	675.2844848632813	189.9685363769531	1070.257568359375	711.5296020507813	266.6420288085938	1022.416931152344	675.4612426757813	270.9254455566406	1062.244995117188	760.1834106445313	714.593017578125	1024.809204101563	702.1898193359375	710.1610717773438	1069.060424804688	750.12841796875	824.1356201171875	1024.71337890625	697.6986694335938	819.3377685546875	1070.69775390625	810.8240356445313	448.1808166503906	1079.216430664063	703.106689453125	106.4760971069336	1409.595825195313	729.0067138671875	119.8154373168945	1329.844848632813	850.294189453125	1033.592407226563	1342.533935546875	780.14892578125	938.69140625	1392.136352539063	633.7408447265625	40.29626846313477	1367.880737304688	660.978515625	57.78031921386719	1411.395751953125	641.0476684570313	82.88622283935547	1367.338256835938	742.0057983398438	482.7280883789063	1402.365966796875	795.2719116210938	1084.600463867188	1370.85009765625	743.39892578125	541.0596923828125	1393.09423828125	756.6533813476563	525.775634765625	1281.364990234375	845.5908813476563	59.97127532958984	1329.492065429688	860.86865234375	74.54636383056641	1376.425048828125	825.3948364257813	50.85661697387695	1439.610717773438	684.5838012695313	1070.75537109375	1274.031616210938	710.396240234375	203.0026245117188	1416.149291992188	669.527099609375	208.3180389404297	1385.330810546875	713.9984130859375	287.6454162597656	1423.591186523438	669.5509643554688	288.9237976074219	1393.485961914063	731.2217407226563	677.1212768554688	1398.424560546875	685.1749877929688	675.1090087890625	1343.844604492188	726.4570922851563	787.7402954101563	1396.552978515625	683.9737548828125	785.0614013671875	1342.8349609375	798.0069580078125	452.3389282226563	1351.085815429688	
